<?xml-stylesheet href="css/styles.css" type="text/css"?><svg xmlns="http://www.w3.org/2000/svg" width="100" height="100" viewBox="0 0 100 100"><defs><radialGradient id="gradGray" cx="50%" cy="50%" r="50%" fx="50%" fy="50%"><stop offset="0%" style="stop-color:white;stop-opacity:1"/><stop offset="100%" style="stop-color:darkgray;stop-opacity:1"/></radialGradient><radialGradient id="gradDarkGray" cx="50%" cy="50%" r="50%" fx="50%" fy="50%"><stop offset="0%" style="stop-color:white;stop-opacity:1"/><stop offset="70%" style="stop-color:gray;stop-opacity:1"/><stop offset="100%" style="stop-color:dimgray;stop-opacity:1"/></radialGradient><linearGradient id="gradWhite" x1="40%" x2="90%" y1="50%" y2="90%"><stop offset="0%" style="stop-color:white;stop-opacity:1"/><stop offset="100%" style="stop-color:darkgray;stop-opacity:1"/></linearGradient></defs><symbol id="grayCloud"><path d="M20,15 Q25,0 45,11 Q60,5 60,20 A30,15 5 1,1 20,15 Z"/></symbol><symbol id="whiteCloud"><path fill="url(#gradWhite)" d="M11,47 Q13,37 21,42 Q31,30 41,38 A28,21 -25 1,1 35,75 Q23,85 19,73 A12,12 0 0,1 11,47Z"/></symbol><use fill="url(#gradGray)" class="small-cloud" href="#grayCloud"/><use x="25" y="10" fill="url(#gradDarkGray)" class="reverse-small-cloud" href="#grayCloud"/><use x="7" href="#whiteCloud"/></svg>