<?xml-stylesheet href="https://cdnjs.cloudflare.com/ajax/libs/animate.css/3.7.0/animate.min.css" type="text/css"?><?xml-stylesheet href="css/styles.css" type="text/css"?><svg xmlns="http://www.w3.org/2000/svg" width="100" height="100" viewBox="0 0 100 100"><defs><radialGradient id="gradYellow" cx="50%" cy="50%" r="80%" fx="90%" fy="80%"><stop offset="0%" style="stop-color:yellow;stop-opacity:1"/><stop offset="100%" style="stop-color:orange;stop-opacity:1"/></radialGradient><radialGradient id="gradGray" cx="50%" cy="50%" r="50%" fx="50%" fy="50%"><stop offset="0%" style="stop-color:white;stop-opacity:1"/><stop offset="100%" style="stop-color:darkgray;stop-opacity:1"/></radialGradient><linearGradient id="gradWhite" x1="40%" x2="90%" y1="50%" y2="90%"><stop offset="0%" style="stop-color:white;stop-opacity:1"/><stop offset="100%" style="stop-color:darkgray;stop-opacity:1"/></linearGradient></defs><symbol id="moon"><path fill="url(#gradYellow)" d="M60,20 A30,30 0 1,0 90,65 22,22 0 1,1 60,20z"/></symbol><symbol id="star"><polygon points="5 0 2 10 10 4 0 4 8 10" style="fill:url(#gradYellow);fill-rule:nonzero"/></symbol><symbol id="rainDrop"><path fill="#add8e6" d="M10 0 Q10,0 14,7 A5,5 0 1,1 6,7 Q10,0 10,0Z"/></symbol><symbol id="grayCloud"><path d="M20,15 Q25,0 45,11 Q60,5 60,20 A30,15 5 1,1 20,15 Z"/></symbol><symbol id="whiteCloud"><path fill="url(#gradWhite)" d="M11,47 Q13,37 21,42 Q31,30 41,38 A28,21 -25 1,1 35,75 Q23,85 19,73 A12,12 0 0,1 11,47Z"/></symbol><use x="-20" y="-15" href="#moon"/><use x="40" y="10" class="stars animated infinite flash" href="#star"/><use x="50" y="20" class="stars animated infinite flash delay-1s" href="#star"/><use x="40" y="30" class="stars animated infinite flash delay-2s" href="#star"/><use fill="url(#gradGray)" class="small-cloud" href="#grayCloud"/><use id="drop1" x="25" y="65" href="#rainDrop"/><use id="drop3" x="45" y="65" href="#rainDrop"/><use x="7" href="#whiteCloud"/></svg>