<?xml-stylesheet href="css/styles.css" type="text/css"?><svg xmlns="http://www.w3.org/2000/svg" width="100" height="100" viewBox="0 0 100 100"><defs><radialGradient id="gradDarkGray" cx="50%" cy="50%" r="50%" fx="50%" fy="50%"><stop offset="0%" style="stop-color:white;stop-opacity:1"/><stop offset="70%" style="stop-color:gray;stop-opacity:1"/><stop offset="100%" style="stop-color:dimgray;stop-opacity:1"/></radialGradient><linearGradient id="gradWhite" x1="40%" x2="90%" y1="50%" y2="90%"><stop offset="0%" style="stop-color:white;stop-opacity:1"/><stop offset="100%" style="stop-color:darkgray;stop-opacity:1"/></linearGradient></defs><symbol id="grayCloud"><path d="M20,15 Q25,0 45,11 Q60,5 60,20 A30,15 5 1,1 20,15 Z"/></symbol><symbol id="snowFlake"><circle cx="5" cy="5" r="2" fill="#add8e6"/><path fill="#00f" d="M5,0 L5,10 M0,5 L10,5 M1.5,1.5 L8.5,8.5 M8.5,1.5 L1.5,8.5"/><path fill="#00f" d="M3.5,0.25 L5,2 L6.5,0.25 M3.5,9.75 L5,8 L6.5,9.75"/><path fill="#00f" d="M0.25,3.5 L2,5 L0.25,6.5 M9.75,3.5 L8,5 L9.75,6.5"/><path fill="#00f" d="M0.75,2.90 L2.85,2.85 L2.90,0.75 M7.25,9.35 L7.15,7.15 L9.35,7.25"/><path fill="#00f" d="M0.75,7.25 L2.85,7.15 L2.90,9.35 M7.15,0.75 L7.25,2.85 L9.35,2.90"/></symbol><symbol id="rainDrizzle"><line x1="20" x2="10" y1="2" y2="40"/></symbol><symbol id="whiteCloud"><path fill="url(#gradWhite)" d="M11,47 Q13,37 21,42 Q31,30 41,38 A28,21 -25 1,1 35,75 Q23,85 19,73 A12,12 0 0,1 11,47Z"/></symbol><use x="25" y="10" fill="url(#gradDarkGray)" class="reverse-small-cloud" href="#grayCloud"/><use id="snowFlake1" x="20" y="55" href="#snowFlake"/><use id="snowFlake2" x="35" y="65" href="#snowFlake"/><use id="snowFlake3" x="45" y="60" href="#snowFlake"/><use id="snowFlake4" x="50" y="65" href="#snowFlake"/><use id="snowFlake5" x="63" y="65" href="#snowFlake"/><use x="15" y="65" href="#rainDrizzle"/><use x="25" y="65" href="#rainDrizzle"/><use x="35" y="65" href="#rainDrizzle"/><use x="45" y="65" href="#rainDrizzle"/><use x="5" y="-7" href="#whiteCloud"/></svg>