<?xml-stylesheet href="css/styles.css" type="text/css"?><svg xmlns="http://www.w3.org/2000/svg" width="100" height="100" viewBox="0 0 100 100"><defs><radialGradient id="gradYellow" cx="50%" cy="50%" r="80%" fx="90%" fy="80%"><stop offset="0%" style="stop-color:yellow;stop-opacity:1"/><stop offset="100%" style="stop-color:orange;stop-opacity:1"/></radialGradient></defs><symbol id="sun"><circle cx="50" cy="50" r="20" fill="url(#gradYellow)"/><line x1="50" x2="50" y1="27" y2="2" class="longRay"/><line x1="50" x2="50" y1="73" y2="98" class="longRay"/><line x1="27" x2="2" y1="50" y2="50" class="longRay"/><line x1="73" x2="98" y1="50" y2="50" class="longRay"/><line x1="34" x2="16" y1="34" y2="16" class="longRay"/><line x1="66" x2="84" y1="66" y2="84" class="longRay"/><line x1="34" x2="16" y1="66" y2="84" class="longRay"/><line x1="66" x2="84" y1="34" y2="16" class="longRay"/><line x1="59" x2="66" y1="29" y2="13" class="shortRay"/><line x1="71" x2="87" y1="42" y2="35" class="shortRay"/><line x1="71" x2="87" y1="58.5" y2="65" class="shortRay"/><line x1="59" x2="66" y1="71" y2="87" class="shortRay"/><line x1="41" x2="34" y1="71" y2="87" class="shortRay"/><line x1="29.5" x2="13" y1="58.5" y2="66" class="shortRay"/><line x1="29" x2="13" y1="42" y2="35" class="shortRay"/><line x1="41" x2="35" y1="29" y2="13" class="shortRay"/></symbol><use fill="url(#gradYellow)" href="#sun"/></svg>