<?xml-stylesheet href="css/styles.css" type="text/css"?><svg xmlns="http://www.w3.org/2000/svg" id="wind" width="100" height="100" class="icon wind" viewBox="0 0 100 100"><path id="wind1" d="M 8,37 L 35,37" class="wind-strike"/><path id="wind2" d="M 2,45 L 45,45 C65,45 64,25 52,25 C47,24 42,30 44,35" class="wind-strike"/><path id="wind3" d="M 20,55 L 75,55 C90,53 90,35 80,32 C70,28 60,42 70,48 C80,50 80,40 78,41" class="wind-strike"/><path id="wind4" d="M 12,65 L 65,65 C85,68 75,87 65,83 C60,81 60,78 61,76" class="wind-strike"/><path id="wind5" d="M 5,75 L 48,75" class="wind-strike"/></svg>