<svg xmlns="http://www.w3.org/2000/svg" xmlns:xlink="http://www.w3.org/1999/xlink" id="cloudLightningMoonFill" x="0" y="0" class="climacon climacon_cloudLightningMoonFill" enable-background="new 15 15 70 70" version="1.1" viewBox="15 15 70 70" xml:space="preserve"><style type="text/css">@-webkit-keyframes wobble{0%,50%{-webkit-transform:rotate(0)}25%{-webkit-transform:rotate(-15deg)}75%{-webkit-transform:rotate(15deg)}}@-moz-keyframes wobble{0%,50%{-moz-transform:rotate(0)}25%{-moz-transform:rotate(-15deg)}75%{-moz-transform:rotate(15deg)}}@-o-keyframes wobble{0%,50%{-o-transform:rotate(0)}25%{-o-transform:rotate(-15deg)}75%{-o-transform:rotate(15deg)}}@keyframes wobble{0%,50%{transform:rotate(0)}25%{transform:rotate(-15deg)}75%{transform:rotate(15deg)}}@-webkit-keyframes behindCloudMove{0%{-webkit-transform:translateX(-1.75px) translateY(1.75px)}}@-moz-keyframes behindCloudMove{0%{-moz-transform:translateX(-1.75px) translateY(1.75px)}}@-o-keyframes behindCloudMove{0%{-o-transform:translateX(-1.75px) translateY(1.75px)}}@keyframes behindCloudMove{0%{transform:translateX(-1.75px) translateY(1.75px)}}@-webkit-keyframes fillOpacityLightning{0%,50%,53%,60%,7%{fill-opacity:0;stroke-opacity:0}1%,51%,54%{fill-opacity:1;stroke-opacity:1}}@-moz-keyframes fillOpacityLightning{0%,50%,53%,60%,7%{fill-opacity:0;stroke-opacity:0}1%,51%,54%{fill-opacity:1;stroke-opacity:1}}@-o-keyframes fillOpacityLightning{0%,50%,53%,60%,7%{fill-opacity:0;stroke-opacity:0}1%,51%,54%{fill-opacity:1;stroke-opacity:1}}@keyframes fillOpacityLightning{0%,50%,53%,60%,7%{fill-opacity:0;stroke-opacity:0}1%,51%,54%{fill-opacity:1;stroke-opacity:1}}svg{shape-rendering:geometricPrecision}g,path{-webkit-transform-origin:50% 50%;-webkit-animation-timing-function:linear;-moz-transform-origin:50% 50%;-moz-animation-timing-function:linear;-o-transform-origin:50% 50%;-o-animation-timing-function:linear;transform-origin:50% 50%;animation-timing-function:linear}.climacon_componentWrap-moon_cloud{-webkit-animation-name:behindCloudMove,wobble;-moz-animation-name:behindCloudMove,wobble;-o-animation-name:behindCloudMove,wobble;animation-name:behindCloudMove,wobble;-webkit-animation-iteration-count:1,infinite;-moz-animation-iteration-count:1,infinite;-o-animation-iteration-count:1,infinite;animation-iteration-count:1,infinite;-webkit-animation-timing-function:ease-out,linear;-moz-animation-timing-function:ease-out,linear;-o-animation-timing-function:ease-out,linear;animation-timing-function:ease-out,linear;-webkit-animation-delay:0,3s;-moz-animation-delay:0,3s;-o-animation-delay:0,3s;animation-delay:0,3s;-webkit-animation-duration:3s,12s;-moz-animation-duration:3s,12s;-o-animation-duration:3s,12s;animation-duration:3s,12s}.climacon_component-stroke_lightning,g,path{-webkit-animation-iteration-count:infinite;-moz-animation-iteration-count:infinite;-o-animation-iteration-count:infinite;animation-iteration-count:infinite;-webkit-animation-direction:normal;-moz-animation-direction:normal;-o-animation-direction:normal;animation-direction:normal;-webkit-animation-duration:12s;-moz-animation-duration:12s;-o-animation-duration:12s;animation-duration:12s}.climacon_component-stroke_lightning{fill-opacity:0;-webkit-animation-name:fillOpacityLightning;-moz-animation-name:fillOpacityLightning;-o-animation-name:fillOpacityLightning;animation-name:fillOpacityLightning;-webkit-animation-timing-function:ease-out;-moz-animation-timing-function:ease-out;-o-animation-timing-function:ease-out;animation-timing-function:ease-out}</style><g class="climacon_iconWrap climacon_iconWrap-cloudLightningMoonFill"><g class="climacon_componentWrap climacon_componentWrap-moon climacon_componentWrap-moon_cloud"><path d="M61.023,50.641c-6.627,0-11.999-5.372-11.999-11.998c0-6.627,5.372-11.999,11.999-11.999c0.755,0,1.491,0.078,2.207,0.212c-0.132,0.576-0.208,1.173-0.208,1.788c0,4.418,3.582,7.999,8,7.999c0.614,0,1.212-0.076,1.788-0.208c0.133,0.717,0.211,1.452,0.211,2.208C73.021,45.269,67.649,50.641,61.023,50.641z" class="climacon_component climacon_component-stroke climacon_component-stroke_sunBody"/><path fill="#FFF" d="M59.235,30.851c-3.556,0.813-6.211,3.989-6.211,7.792c0,4.417,3.581,7.999,7.999,7.999c3.802,0,6.979-2.655,7.791-6.211C63.961,39.527,60.139,35.705,59.235,30.851z" class="climacon_component climacon_component-fill climacon_component-fill_moon"/></g><g class="climacon_componentWrap climacon_componentWrap-lightning"><polygon points="48.001 51.641 57.999 51.641 52 61.641 58.999 61.641 46.001 77.639 49.601 65.641 43.001 65.641" class="climacon_component climacon_component-stroke climacon_component-stroke_lightning"/></g><g class="climacon_componentWrap climacon_componentWrap_cloud"><path d="M43.945,65.639c-8.835,0-15.998-7.162-15.998-15.998c0-8.836,7.163-15.998,15.998-15.998c6.004,0,11.229,3.312,13.965,8.203c0.664-0.113,1.338-0.205,2.033-0.205c6.627,0,11.998,5.373,11.998,12c0,6.625-5.371,11.998-11.998,11.998C57.168,65.639,47.143,65.639,43.945,65.639z" class="climacon_component climacon_component-stroke climacon_component-stroke_cloud"/><path fill="#FFF" d="M59.943,61.639c4.418,0,8-3.582,8-7.998c0-4.417-3.582-8-8-8c-1.601,0-3.082,0.481-4.334,1.291c-1.23-5.316-5.973-9.29-11.665-9.29c-6.626,0-11.998,5.372-11.998,11.999c0,6.626,5.372,11.998,11.998,11.998C47.562,61.639,56.924,61.639,59.943,61.639z" class="climacon_component climacon_component-fill climacon_component-fill_cloud"/></g></g></svg>