<svg xmlns="http://www.w3.org/2000/svg" xmlns:xlink="http://www.w3.org/1999/xlink" id="cloudDrizzleMoonFillAlt" x="0" y="0" class="climacon climacon_cloudDrizzleMoonFillAlt" enable-background="new 15 15 70 70" version="1.1" viewBox="15 15 70 70" xml:space="preserve"><style type="text/css">@-webkit-keyframes drizzleFall{0%{-webkit-transform:translateY(0)}}@-moz-keyframes drizzleFall{0%{-moz-transform:translateY(0)}}@-o-keyframes drizzleFall{0%{-o-transform:translateY(0)}}@keyframes drizzleFall{0%{transform:translateY(0)}}@-webkit-keyframes fillOpacity2{0%{fill-opacity:0;stroke-opacity:0}50%{fill-opacity:1;stroke-opacity:1}}@-moz-keyframes fillOpacity2{0%{fill-opacity:0;stroke-opacity:0}50%{fill-opacity:1;stroke-opacity:1}}@-o-keyframes fillOpacity2{0%{fill-opacity:0;stroke-opacity:0}50%{fill-opacity:1;stroke-opacity:1}}@keyframes fillOpacity2{0%{fill-opacity:0;stroke-opacity:0}50%{fill-opacity:1;stroke-opacity:1}}@-webkit-keyframes wobble{0%,50%{-webkit-transform:rotate(0)}25%{-webkit-transform:rotate(-15deg)}75%{-webkit-transform:rotate(15deg)}}@-moz-keyframes wobble{0%,50%{-moz-transform:rotate(0)}25%{-moz-transform:rotate(-15deg)}75%{-moz-transform:rotate(15deg)}}@-o-keyframes wobble{0%,50%{-o-transform:rotate(0)}25%{-o-transform:rotate(-15deg)}75%{-o-transform:rotate(15deg)}}@keyframes wobble{0%,50%{transform:rotate(0)}25%{transform:rotate(-15deg)}75%{transform:rotate(15deg)}}@-webkit-keyframes behindCloudMove{0%{-webkit-transform:translateX(-1.75px) translateY(1.75px)}}@-moz-keyframes behindCloudMove{0%{-moz-transform:translateX(-1.75px) translateY(1.75px)}}@-o-keyframes behindCloudMove{0%{-o-transform:translateX(-1.75px) translateY(1.75px)}}@keyframes behindCloudMove{0%{transform:translateX(-1.75px) translateY(1.75px)}}svg{shape-rendering:geometricPrecision}g,path{-webkit-transform-origin:50% 50%;-moz-transform-origin:50% 50%;-o-transform-origin:50% 50%;transform-origin:50% 50%;-webkit-animation-iteration-count:infinite;-moz-animation-iteration-count:infinite;-o-animation-iteration-count:infinite;animation-iteration-count:infinite;-moz-animation-timing-function:linear;-webkit-animation-timing-function:linear;-o-animation-timing-function:linear;animation-timing-function:linear;-webkit-animation-duration:12s;-moz-animation-duration:12s;-o-animation-duration:12s;animation-duration:12s;-webkit-animation-direction:normal;-moz-animation-direction:normal;-o-animation-direction:normal;animation-direction:normal}.climacon_component-stroke_drizzle{fill-opacity:0;-webkit-animation-name:drizzleFall,fillOpacity2;-moz-animation-name:drizzleFall,fillOpacity2;-o-animation-name:drizzleFall,fillOpacity2;animation-name:drizzleFall,fillOpacity2;-webkit-animation-timing-function:ease-in;-moz-animation-timing-function:ease-in;-o-animation-timing-function:ease-in;animation-timing-function:ease-in;-webkit-animation-duration:1s;-moz-animation-duration:1s;-o-animation-duration:1s;animation-duration:1s}.climacon_component-stroke_drizzle:nth-child(1){-webkit-animation-delay:0s;-moz-animation-delay:0s;-o-animation-delay:0s;animation-delay:0s}.climacon_component-stroke_drizzle:nth-child(2){-webkit-animation-delay:.6s;-moz-animation-delay:.6s;-o-animation-delay:.6s;animation-delay:.6s}.climacon_component-stroke_drizzle:nth-child(3){-webkit-animation-delay:1.2s;-moz-animation-delay:1.2s;-o-animation-delay:1.2s;animation-delay:1.2s}.climacon_componentWrap-moon_cloud{-webkit-animation-name:behindCloudMove,wobble;-moz-animation-name:behindCloudMove,wobble;-o-animation-name:behindCloudMove,wobble;animation-name:behindCloudMove,wobble;-webkit-animation-iteration-count:1,infinite;-moz-animation-iteration-count:1,infinite;-o-animation-iteration-count:1,infinite;animation-iteration-count:1,infinite;-webkit-animation-timing-function:ease-out,linear;-moz-animation-timing-function:ease-out,linear;-o-animation-timing-function:ease-out,linear;animation-timing-function:ease-out,linear;-webkit-animation-delay:0,3s;-moz-animation-delay:0,3s;-o-animation-delay:0,3s;animation-delay:0,3s;-webkit-animation-duration:3s,12s;-moz-animation-duration:3s,12s;-o-animation-duration:3s,12s;animation-duration:3s,12s}</style><g class="climacon_iconWrap climacon_iconWrap-cloudDrizzleMoonFillAlt"><g class="climacon_componentWrap climacon_componentWrap-moon climacon_componentWrap-moon_cloud"><path d="M61.023,50.641c-6.627,0-11.999-5.372-11.999-11.998c0-6.627,5.372-11.999,11.999-11.999c0.755,0,1.491,0.078,2.207,0.212c-0.132,0.576-0.208,1.173-0.208,1.788c0,4.418,3.582,7.999,8,7.999c0.614,0,1.212-0.076,1.788-0.208c0.133,0.717,0.211,1.452,0.211,2.208C73.021,45.269,67.649,50.641,61.023,50.641z" class="climacon_component climacon_component-stroke climacon_component-stroke_sunBody"/><path fill="#FFF" d="M59.235,30.851c-3.556,0.813-6.211,3.989-6.211,7.792c0,4.417,3.581,7.999,7.999,7.999c3.802,0,6.979-2.655,7.791-6.211C63.961,39.527,60.139,35.705,59.235,30.851z" class="climacon_component climacon_component-fill climacon_component-fill_moon"/></g><g class="climacon_componentWrap climacon_componentWrap-drizzle"><path id="Drizzle-Left_1_" d="M56.969,57.672l-2.121,2.121c-1.172,1.172-1.172,3.072,0,4.242c1.17,1.172,3.07,1.172,4.24,0c1.172-1.17,1.172-3.07,0-4.242L56.969,57.672z" class="climacon_component climacon_component-stroke climacon_component-stroke_drizzle climacon_component-stroke_drizzle-left"/><path d="M50.088,57.672l-2.119,2.121c-1.174,1.172-1.174,3.07,0,4.242c1.17,1.172,3.068,1.172,4.24,0s1.172-3.07,0-4.242L50.088,57.672z" class="climacon_component climacon_component-stroke climacon_component-stroke_drizzle climacon_component-stroke_drizzle-middle"/><path d="M43.033,57.672l-2.121,2.121c-1.172,1.172-1.172,3.07,0,4.242s3.07,1.172,4.244,0c1.172-1.172,1.172-3.07,0-4.242L43.033,57.672z" class="climacon_component climacon_component-stroke climacon_component-stroke_drizzle climacon_component-stroke_drizzle-right"/></g><g class="climacon_componentWrap climacon_componentWrap_cloud"><path d="M43.945,65.639c-8.835,0-15.998-7.162-15.998-15.998c0-8.836,7.163-15.998,15.998-15.998c6.004,0,11.229,3.312,13.965,8.203c0.664-0.113,1.338-0.205,2.033-0.205c6.627,0,11.998,5.373,11.998,12c0,6.625-5.371,11.998-11.998,11.998C57.168,65.639,47.143,65.639,43.945,65.639z" class="climacon_component climacon_component-stroke climacon_component-stroke_cloud"/><path fill="#FFF" d="M59.943,61.639c4.418,0,8-3.582,8-7.998c0-4.417-3.582-8-8-8c-1.601,0-3.082,0.481-4.334,1.291c-1.23-5.316-5.973-9.29-11.665-9.29c-6.626,0-11.998,5.372-11.998,11.999c0,6.626,5.372,11.998,11.998,11.998C47.562,61.639,56.924,61.639,59.943,61.639z" class="climacon_component climacon_component-fill climacon_component-fill_cloud"/></g></g></svg>