<svg xmlns="http://www.w3.org/2000/svg" xmlns:xlink="http://www.w3.org/1999/xlink" id="sunsetAlt" x="0" y="0" class="climacon climacon_sunsetAlt" enable-background="new 15 15 70 70" version="1.1" viewBox="15 15 70 70" xml:space="preserve"><style type="text/css">@-webkit-keyframes scale{0%{-webkit-transform:scale(1,1)}}@-moz-keyframes scale{0%{-moz-transform:scale(1,1)}}@-o-keyframes scale{0%{-o-transform:scale(1,1)}}@keyframes scale{0%{transform:scale(1,1)}}@-webkit-keyframes fillOpacity{0%{fill-opacity:0;stroke-opacity:0}}@-moz-keyframes fillOpacity{0%{fill-opacity:0;stroke-opacity:0}}@-o-keyframes fillOpacity{0%{fill-opacity:0;stroke-opacity:0}}@keyframes fillOpacity{0%{fill-opacity:0;stroke-opacity:0}}@-webkit-keyframes translateSunset{0%{-webkit-transform:translateY(-16px)}25%{-webkit-transform:translateY(-4px)}}@-moz-keyframes translateSunset{0%{-moz-transform:translateY(-16px)}25%{-moz-transform:translateY(-4px)}}@-o-keyframes translateSunset{0%{-o-transform:translateY(-16px)}25%{-o-transform:translateY(-4px)}}@keyframes translateSunset{0%{transform:translateY(-16px)}25%{transform:translateY(-4px)}}svg{shape-rendering:geometricPrecision}.climacon_componentWrap-sunsetAlt,g,path,rect{-webkit-animation-duration:12s;-moz-animation-duration:12s;-o-animation-duration:12s;animation-duration:12s;-webkit-animation-direction:normal;-moz-animation-direction:normal;-o-animation-direction:normal;animation-direction:normal}g,path,rect{-webkit-transform-origin:50% 50%;-webkit-animation-timing-function:linear;-moz-transform-origin:50% 50%;-moz-animation-timing-function:linear;-o-transform-origin:50% 50%;-o-animation-timing-function:linear;transform-origin:50% 50%;animation-timing-function:linear}.climacon_component-stroke_sunSpoke,.climacon_componentWrap-sunsetAlt{-webkit-animation-delay:0;-moz-animation-delay:0;-o-animation-delay:0;animation-delay:0}.climacon_componentWrap-sunsetAlt{-webkit-animation-name:translateSunset;-moz-animation-name:translateSunset;-o-animation-name:translateSunset;animation-name:translateSunset;-webkit-animation-iteration-count:1;-moz-animation-iteration-count:1;-o-animation-iteration-count:1;animation-iteration-count:1;-webkit-animation-fill-mode:forwards;-moz-animation-fill-mode:forwards;-o-animation-fill-mode:forwards;animation-fill-mode:forwards}.climacon_component-stroke_sunSpoke,g,path,rect{-webkit-animation-iteration-count:infinite;-moz-animation-iteration-count:infinite;-o-animation-iteration-count:infinite;animation-iteration-count:infinite}.climacon_component-stroke_sunSpoke{-webkit-animation-name:scale;-moz-animation-name:scale;-o-animation-name:scale;animation-name:scale;-webkit-animation-direction:alternate;-moz-animation-direction:alternate;-o-animation-direction:alternate;animation-direction:alternate;-webkit-animation-duration:3s;-moz-animation-duration:3s;-o-animation-duration:3s;animation-duration:3s;-webkit-animation-fill-mode:both;-moz-animation-fill-mode:both;-o-animation-fill-mode:both;animation-fill-mode:both}.climacon_component-stroke_sunSpoke:nth-child(even){-webkit-animation-delay:3s;-moz-animation-delay:3s;-o-animation-delay:3s;animation-delay:3s}</style><clipPath id="sunriseClip"><rect width="70" height="45" x="15" y="15"/></clipPath><g class="climacon_iconWrap climacon_iconWrap-sunsetAlt"><g clip-path="url(#sunriseClip)"><g class="climacon_componentWrap climacon_componentWrap-sunsetAlt"><g class="climacon_componentWrap climacon_componentWrap-sunSpoke"><path d="M71.997,74.002h-3.999c-1.104,0-2-0.896-2-2c0-1.105,0.896-2,2-2h3.999c1.104,0,2,0.895,2,2C73.997,73.105,73.104,74.002,71.997,74.002z" class="climacon_component climacon_component-stroke climacon_component-stroke_sunSpoke climacon_component-stroke_sunSpoke-east"/><path d="M64.141,60.689c-0.781,0.78-2.048,0.78-2.828,0c-0.779-0.781-0.779-2.047,0-2.828l2.828-2.828c0.78-0.78,2.047-0.78,2.828,0c0.78,0.781,0.78,2.047,0,2.828L64.141,60.689z" class="climacon_component climacon_component-stroke climacon_component-stroke_sunSpoke climacon_component-stroke_sunSpoke-east"/><path d="M50,56.003c-1.104,0-1.999-0.896-1.999-2v-3.999c0-1.104,0.896-2,1.999-2s2,0.896,2,2v3.999C52,55.107,51.104,56.003,50,56.003z" class="climacon_component climacon_component-stroke climacon_component-stroke_sunSpoke climacon_component-stroke_sunSpoke-east"/><path d="M35.86,60.689l-2.828-2.828c-0.781-0.781-0.781-2.047,0-2.828c0.78-0.78,2.047-0.78,2.828,0l2.828,2.828c0.78,0.781,0.78,2.047,0,2.828C37.907,61.47,36.641,61.47,35.86,60.689z" class="climacon_component climacon_component-stroke climacon_component-stroke_sunSpoke climacon_component-stroke_sunSpoke-east"/><path d="M34.002,72.002c0,1.104-0.896,2-1.999,2h-4c-1.104,0-2-0.896-2-2c0-1.105,0.896-2,2-2h4C33.106,70.002,34.002,70.896,34.002,72.002z" class="climacon_component climacon_component-stroke climacon_component-stroke_sunSpoke climacon_component-stroke_sunSpoke-east"/></g><g class="climacon_wrapperComponent climacon_wrapperComponent-sunBody"><path d="M61.302,76h-4.381c0.683-1.176,1.078-2.539,1.078-3.998c0-4.418-3.581-8-7.999-8c-4.417,0-7.999,3.582-7.999,8c0,1.459,0.396,2.822,1.079,3.998h-4.381c-0.444-1.252-0.698-2.594-0.698-3.998c0-6.627,5.373-11.999,11.999-11.999c6.627,0,11.999,5.371,11.999,11.999C61.999,73.406,61.745,74.748,61.302,76z" class="climacon_component climacon_component-stroke climacon_component-stroke_sunBody"/></g></g></g><g class="climacon_wrapperComponent climacon_wrapperComponent-horizonLine"><path d="M40.001,63.998h19.998c1.104,0,2,0.896,2,2c0,1.105-0.896,2-2,2H40.001c-1.104,0-2-0.895-2-2C38.001,64.895,38.897,63.998,40.001,63.998z" class="climacon_component climacon_component-stroke climacon_component-stroke_horizonLine"/></g></g></svg>