<svg xmlns="http://www.w3.org/2000/svg" xmlns:xlink="http://www.w3.org/1999/xlink" id="thermometer" x="0" y="0" enable-background="new 15 15 70 70" version="1.1" viewBox="15 15 70 70" xml:space="preserve"><style type="text/css">svg{shape-rendering:geometricPrecision}circle,g,path,rect{-webkit-transform-origin:50% 50%;-moz-transform-origin:50% 50%;-o-transform-origin:50% 50%;transform-origin:50% 50%;-webkit-animation-iteration-count:infinite;-moz-animation-iteration-count:infinite;-o-animation-iteration-count:infinite;animation-iteration-count:infinite;-moz-animation-timing-function:linear;-webkit-animation-timing-function:linear;-o-animation-timing-function:linear;animation-timing-function:linear;-webkit-animation-duration:12s;-moz-animation-duration:12s;-o-animation-duration:12s;animation-duration:12s;-webkit-animation-direction:normal;-moz-animation-direction:normal;-o-animation-direction:normal;animation-direction:normal}</style><clipPath id="thermolineClip"><rect width="70" height="42.375" x="15" y="15"/></clipPath><g class="climacon_iconWrap climacon_iconWrap-thermometer climacon_iconWrap-thermometer-100"><g class="climacon_componentWrap climacon_componentWrap-sunriseAlt"><path d="M56,54.72V38.001c0-3.313-2.688-5.999-6-5.999c-3.312,0-5.999,2.686-5.999,5.999V54.72c-1.241,1.409-2,3.253-2,5.278c0,4.418,3.582,7.999,7.999,7.999c4.418,0,7.999-3.581,7.999-7.999C57.999,57.973,57.24,56.129,56,54.72z M50,63.997c-2.208,0-3.999-1.79-3.999-3.999c0-1.477,0.81-2.752,2-3.445v-4.292V42v-3.999c0-1.104,0.895-2,1.999-2c1.104,0,2,0.896,2,2V42v10.261v4.292c1.189,0.693,2,1.969,2,3.445C54,62.207,52.209,63.997,50,63.997z" class="climacon_component-stroke climacon_component-stroke_thermoBody"/><circle cx="50" cy="59.998" r="3" class="climacon_component-stroke climacon_component-stroke_thermoBall"/><g clip-path="url(#thermolineClip)"><path id="thermoline" d="M50,82.995c-1.656,0-3-1.344-3-3c0-1.305,0.838-2.402,2-2.816V61.935v-3.937c0-0.554,0.447-1,1-1c0.553,0,1,0.446,1,1v3.937v15.244c1.162,0.414,2,1.512,2,2.816C53,81.651,51.656,82.995,50,82.995z" class="climacon_component-stroke climacon_component-stroke_thermoLine"/></g></g></g></svg>