<?xml-stylesheet href="css/styles.css" type="text/css"?><svg xmlns="http://www.w3.org/2000/svg" id="Layer_1" width="100" height="100" x="0" y="0" style="enable-background:new 0 0 61.7 42.8" class="container" version="1.1" viewBox="0 0 100 100" xml:space="preserve"><style type="text/css">.st1{fill:none;stroke:#add8e6;stroke-width:2;stroke-limit:10}</style><g id="Wind_Sun"><g id="Sun_1_"><circle id="XMLID_25_" cx="27.1" cy="18.1" r="8.9" class="yellow"/><g><path id="XMLID_21_" d="M27.2,6.5L27.2,6.5c-0.4,0-0.6-0.3-0.6-0.6V0.6c0-0.3,0.3-0.6,0.6-0.6l0.1,0 c0.3,0,0.6,0.3,0.6,0.6v5.4C27.7,6.2,27.5,6.5,27.2,6.5z" class="yellow"/><path id="XMLID_18_" d="M27.2,29.5L27.2,29.5c-0.4,0-0.6,0.3-0.6,0.6v5.4c0,0.3,0.3,0.6,0.6,0.6h0.1 c0.3,0,0.6-0.3,0.6-0.6v-5.4C27.7,29.8,27.5,29.5,27.2,29.5z" class="yellow"/><path id="XMLID_17_" d="M15.6,18L15.6,18c0,0.4-0.3,0.6-0.6,0.6H9.7c-0.3,0-0.6-0.3-0.6-0.6V18c0-0.3,0.3-0.6,0.6-0.6 h5.4C15.4,17.4,15.6,17.7,15.6,18z" class="yellow"/><path id="XMLID_16_" d="M38.7,18L38.7,18c0,0.4,0.3,0.6,0.6,0.6h5.4c0.3,0,0.6-0.3,0.6-0.6V18c0-0.3-0.3-0.6-0.6-0.6 h-5.4C38.9,17.4,38.7,17.7,38.7,18z" class="yellow"/><path id="XMLID_15_" d="M18.4,25.5L18.4,25.5c0.2,0.3,0.2,0.6,0,0.8l-4.1,3.5c-0.2,0.2-0.6,0.2-0.8-0.1l0,0 c-0.2-0.2-0.2-0.6,0.1-0.8l4.1-3.5C17.8,25.2,18.2,25.2,18.4,25.5z" class="yellow"/><path id="XMLID_12_" d="M35.9,10.5L35.9,10.5c0.2,0.3,0.6,0.3,0.8,0.1l4.1-3.5C41,6.9,41,6.5,40.8,6.3l0,0 C40.6,6,40.2,6,40,6.2l-4.1,3.5C35.7,9.9,35.7,10.2,35.9,10.5z" class="yellow"/><path id="XMLID_11_" d="M18.4,10.5L18.4,10.5c0.2-0.3,0.2-0.6,0-0.8l-4.1-3.5C14.1,6,13.7,6,13.5,6.3l0,0 c-0.2,0.2-0.2,0.6,0.1,0.8l4.1,3.5C17.8,10.8,18.2,10.8,18.4,10.5z" class="yellow"/><path id="XMLID_9_" d="M35.9,25.5L35.9,25.5c0.2-0.3,0.6-0.3,0.8-0.1l4.1,3.5c0.2,0.2,0.3,0.6,0.1,0.8l0,0 C40.6,30,40.2,30,40,29.8l-4.1-3.5C35.7,26.1,35.7,25.8,35.9,25.5z" class="yellow"/><animate attributeName="opacity" attributeType="XML" calcMode="linear" dur="0.5s" keyTimes="0;0.5;1" repeatCount="indefinite" values="1;0.6;1"/></g></g><g id="Wind"><path id="XMLID_27_" d="M1.3,33.1h19.3c2.1,0,3.8-1.3,3.8-3v0v0c0-1.7-1.7-3-3.8-3h-2.1" class="st1"/><path id="XMLID_40_" d="M2.4,42.4h18.2c2,0,3.6,0.9,3.6,2.1l0,0v0c0,1.2-1.6,2.1-3.6,2.1h-2" class="st1"/><line id="XMLID_28_" x1="5.3" x2="25.5" y1="36.3" y2="36.3" class="st1"/><line id="XMLID_29_" x1="0" x2="27" y1="39.3" y2="39.3" class="st1"/><animateTransform attributeName="transform" attributeType="XML" calcMode="linear" dur="1.5s" keyTimes="0;1" repeatCount="indefinite" type="translate" values="0;3"/><animate attributeName="opacity" attributeType="XML" calcMode="linear" dur="1.5s" keyTimes="0;1" repeatCount="indefinite" values="0.3;0.9"/></g></g></svg>