<?xml-stylesheet href="css/styles.css" type="text/css"?><svg xmlns="http://www.w3.org/2000/svg" id="Layer_1" width="100" height="100" x="0" y="0" style="enable-background:new 0 0 61.7 42.8" class="container" version="1.1" viewBox="0 0 100 100" xml:space="preserve"><g id="Cloud_3"><g id="White_cloud_3"><path id="XMLID_24_" d="M47.2,42.8H7.9c-4.3,0-7.9-3.5-7.9-7.9l0,0C0,30.5,3.5,27,7.9,27h39.4c4.3,0,7.9,3.5,7.9,7.9 v0C55.1,39.2,51.6,42.8,47.2,42.8z" class="white"/><circle id="XMLID_23_" cx="17.4" cy="25.5" r="9.3" class="white"/><circle id="XMLID_22_" cx="34.5" cy="23.9" r="15.6" class="white"/><animateTransform attributeName="transform" attributeType="XML" calcMode="linear" dur="6s" keyTimes="0;0.5;1" repeatCount="indefinite" type="translate" values="0;5;0"/></g><g id="Sun_3"><circle id="XMLID_30_" cx="31.4" cy="18.5" r="9" class="yellow"/><g><path id="XMLID_31_" d="M31.4,6.6L31.4,6.6c-0.4,0-0.6-0.3-0.6-0.6V0.6C30.8,0.3,31,0,31.3,0l0.1,0 C31.7,0,32,0.3,32,0.6v5.5C32,6.4,31.7,6.6,31.4,6.6z" class="yellow"/><path id="XMLID_34_" d="M31.4,30.1L31.4,30.1c-0.4,0-0.6,0.3-0.6,0.6v5.5c0,0.3,0.3,0.6,0.6,0.6h0.1 c0.3,0,0.6-0.3,0.6-0.6v-5.5C32,30.4,31.7,30.1,31.4,30.1z" class="yellow"/><path id="XMLID_35_" d="M19.6,18.3L19.6,18.3c0,0.4-0.3,0.6-0.6,0.6h-5.5c-0.3,0-0.6-0.3-0.6-0.6v-0.1 c0-0.3,0.3-0.6,0.6-0.6H19C19.3,17.8,19.6,18,19.6,18.3z" class="yellow"/><path id="XMLID_33_" d="M43.1,18.3L43.1,18.3c0,0.4,0.3,0.6,0.6,0.6h5.5c0.3,0,0.6-0.3,0.6-0.6v-0.1 c0-0.3-0.3-0.6-0.6-0.6h-5.5C43.4,17.8,43.1,18,43.1,18.3z" class="yellow"/><path id="XMLID_37_" d="M22.4,26L22.4,26c0.3,0.3,0.2,0.7,0,0.9l-4.2,3.6c-0.2,0.2-0.6,0.2-0.8-0.1l-0.1-0.1 c-0.2-0.2-0.2-0.6,0.1-0.8l4.2-3.6C21.9,25.8,22.2,25.8,22.4,26z" class="yellow"/><path id="XMLID_36_" d="M40.3,10.7L40.3,10.7c0.3,0.3,0.6,0.3,0.8,0.1l4.2-3.6c0.2-0.2,0.3-0.6,0.1-0.8l-0.1-0.1 c-0.2-0.2-0.6-0.3-0.8-0.1l-4.2,3.6C40.1,10.1,40,10.5,40.3,10.7z" class="yellow"/><path id="XMLID_39_" d="M22.4,10.8L22.4,10.8c0.3-0.3,0.2-0.7,0-0.9l-4.2-3.6c-0.2-0.2-0.6-0.2-0.8,0.1l-0.1,0.1 c-0.2,0.2-0.2,0.6,0.1,0.8l4.2,3.6C21.9,11,22.2,11,22.4,10.8z" class="yellow"/><path id="XMLID_38_" d="M40.3,26.1L40.3,26.1c0.3-0.3,0.6-0.3,0.8-0.1l4.2,3.6c0.2,0.2,0.3,0.6,0.1,0.8l-0.1,0.1 c-0.2,0.2-0.6,0.3-0.8,0.1l-4.2-3.6C40.1,26.7,40,26.3,40.3,26.1z" class="yellow"/><animate attributeName="opacity" attributeType="XML" calcMode="linear" dur="0.5s" keyTimes="0;0.5;1" repeatCount="indefinite" values="1;0.6;1"/></g></g><animateTransform attributeName="transform" attributeType="XML" calcMode="linear" dur="2s" keyTimes="0;1" repeatCount="indefinite" type="scale" values="1;1"/></g><g id="Gray_cloud_3"><path id="XMLID_20_" d="M55.7,25.1H34.4c-3.3,0-6-2.7-6-6v0c0-3.3,2.7-6,6-6h21.3c3.3,0,6,2.7,6,6v0 C61.7,22.4,59,25.1,55.7,25.1z" class="gray"/><circle id="XMLID_19_" cx="46.7" cy="13.4" r="10.7" class="gray"/><animateTransform attributeName="transform" attributeType="XML" calcMode="linear" dur="6s" keyTimes="0;0.5;1" repeatCount="indefinite" type="translate" values="0;-3;0"/></g></svg>