<?xml-stylesheet href="css/styles.css" type="text/css"?><svg xmlns="http://www.w3.org/2000/svg" id="Layer_1" width="100" height="100" x="0" y="0" style="enable-background:new 0 0 60.7 40" class="container" version="1.1" viewBox="0 0 100 100" xml:space="preserve"><g id="Cloud_1"><g id="White_cloud_1"><path id="XMLID_2_" d="M47.2,40H7.9C3.5,40,0,36.5,0,32.1l0,0c0-4.3,3.5-7.9,7.9-7.9h39.4c4.3,0,7.9,3.5,7.9,7.9v0 C55.1,36.5,51.6,40,47.2,40z" class="white"/><circle id="XMLID_3_" cx="17.4" cy="22.8" r="9.3" class="white"/><circle id="XMLID_4_" cx="34.5" cy="21.1" r="15.6" class="white"/><animateTransform attributeName="transform" attributeType="XML" calcMode="linear" dur="6s" keyTimes="0;0.5;1" repeatCount="indefinite" type="translate" values="0;5;0"/></g><g id="Gray_cloud_1"><path id="XMLID_6_" d="M54.7,22.3H33.4c-3.3,0-6-2.7-6-6v0c0-3.3,2.7-6,6-6h21.3c3.3,0,6,2.7,6,6v0 C60.7,19.6,58,22.3,54.7,22.3z" class="gray"/><circle id="XMLID_7_" cx="45.7" cy="10.7" r="10.7" class="gray"/><animateTransform attributeName="transform" attributeType="XML" calcMode="linear" dur="6s" keyTimes="0;0.5;1" repeatCount="indefinite" type="translate" values="0;-3;0"/></g></g></svg>