<?xml-stylesheet href="css/styles.css" type="text/css"?><svg xmlns="http://www.w3.org/2000/svg" id="LightningStorm" width="100" height="100" x="0" y="0" enable-background="new 0 0 100 100" viewBox="0 0 100 100" xml:space="preserve"><g id="cloud4"><path fill="#FFF" stroke="#add8e6" stroke-miterlimit="10" stroke-width="4" d="M58.998,62.643 c5.628,0,10.458-4.335,10.458-9.963c0-3.413-1.71-6.238-4.286-8.088c-4.996-3.411-9.782,0.155-9.782,0.155 c0-3.782-3.713-9.781-12.552-9.805c-7.738-0.021-14.049,6.44-14.034,14.178c0.002,0.843,0.014,1.554,0.049,2.191 c0.214,3.91,2.116,7.6,5.302,9.878c1.192,0.853,2.507,1.43,3.812,1.431"/></g><polygon id="lightning" points="45.221 52.912 55.219 52.904 49.22 62.904 56.219 62.904 43.221 78.902 46.821 66.904 40.221 66.904"/></svg>