<?xml-stylesheet href="css/styles.css" type="text/css"?><svg xmlns="http://www.w3.org/2000/svg" id="partlyCloudy" width="100" height="100" x="0" y="0" enable-background="new 0 0 100 100" viewBox="0 0 100 100" xml:space="preserve"><g id="sun_partly"><circle cx="53.074" cy="49.94" r="9.283" fill="none" stroke="#add8e6" stroke-miterlimit="10" stroke-width="4"/><line x1="53.168" x2="53.168" y1="33.372" y2="29.487" fill="none" stroke="#add8e6" stroke-linecap="round" stroke-miterlimit="10" stroke-width="4"/><line x1="53.168" x2="53.168" y1="66.588" y2="70.473" fill="none" stroke="#add8e6" stroke-linecap="round" stroke-miterlimit="10" stroke-width="4"/><line x1="64.88" x2="67.627" y1="38.13" y2="35.383" fill="none" stroke="#add8e6" stroke-linecap="round" stroke-miterlimit="10" stroke-width="4"/><line x1="41.394" x2="38.647" y1="38.192" y2="35.445" fill="none" stroke="#add8e6" stroke-linecap="round" stroke-miterlimit="10" stroke-width="4"/><line x1="64.842" x2="67.589" y1="61.691" y2="64.438" fill="none" stroke="#add8e6" stroke-linecap="round" stroke-miterlimit="10" stroke-width="4"/><line x1="41.355" x2="38.609" y1="61.629" y2="64.376" fill="none" stroke="#add8e6" stroke-linecap="round" stroke-miterlimit="10" stroke-width="4"/><line x1="36.367" x2="32.713" y1="49.911" y2="49.911" fill="none" stroke="#add8e6" stroke-linecap="round" stroke-miterlimit="10" stroke-width="4"/><line x1="69.814" x2="73.469" y1="49.911" y2="49.911" fill="none" stroke="#add8e6" stroke-linecap="round" stroke-miterlimit="10" stroke-width="4"/></g><g id="cloud_partly"><path fill="#FFFDFD" stroke="#add8e6" stroke-miterlimit="10" stroke-width="4" d="M57.263,72.111 c5.628,0,11.329-4.592,11.329-10.219c0-3.413-1.71-6.238-4.286-8.088c-4.996-3.411-9.782,0.155-9.782,0.155 c0-3.789-3.728-9.805-12.605-9.805c-7.722,0-13.981,6.26-13.981,13.981s6.26,13.981,13.981,13.981s13.892-0.004,13.892-0.004 L57.263,72.111z"/></g></svg>