<?xml-stylesheet href="css/styles.css" type="text/css"?><svg xmlns="http://www.w3.org/2000/svg" id="patchyDrizzle" width="100" height="100" x="0" y="0" enable-background="new 0 0 100 100" viewBox="0 0 100 100" xml:space="preserve"><g id="cloud_drizzle"><path fill="#FFF" stroke="#add8e6" stroke-miterlimit="10" stroke-width="4" d="M59.869,58.758 c5.628,0,10.458-4.335,10.458-9.963c0-3.413-1.71-6.238-4.286-8.088c-4.996-3.411-9.782,0.155-9.782,0.155 c0-3.782-3.713-9.781-12.552-9.805c-7.738-0.021-14.049,6.44-14.034,14.178c0.002,0.843,0.014,1.554,0.049,2.191 c0.214,3.91,2.116,7.6,5.302,9.878c1.192,0.853,2.507,1.43,3.812,1.431"/></g><g id="rain_drizzle"><line x1="41.5" x2="41.5" y1="52.876" y2="66.124" fill="none" stroke="#add8e6" stroke-linecap="round" stroke-miterlimit="10" stroke-width="4"/><line x1="49.21" x2="49.21" y1="55.876" y2="69.124" fill="none" stroke="#add8e6" stroke-linecap="round" stroke-miterlimit="10" stroke-width="4"/><line x1="57.211" x2="57.211" y1="52.876" y2="66.124" fill="none" stroke="#add8e6" stroke-linecap="round" stroke-miterlimit="10" stroke-width="4"/></g></svg>