<?xml-stylesheet href="css/styles.css" type="text/css"?><svg xmlns="http://www.w3.org/2000/svg" id="patchyRain" width="100" height="100" x="0" y="0" enable-background="new 0 0 100 100" viewBox="0 0 100 100" xml:space="preserve"><g id="sun_patchy2"><circle cx="52.69" cy="43.858" r="8.993" fill="none" stroke="#add8e6" stroke-miterlimit="10" stroke-width="4"/><line x1="52.78" x2="52.78" y1="27.807" y2="24.044" fill="none" stroke="#add8e6" stroke-linecap="round" stroke-miterlimit="10" stroke-width="4"/><line x1="52.78" x2="52.78" y1="59.987" y2="63.75" fill="none" stroke="#add8e6" stroke-linecap="round" stroke-miterlimit="10" stroke-width="4"/><line x1="64.127" x2="66.788" y1="32.417" y2="29.756" fill="none" stroke="#add8e6" stroke-linecap="round" stroke-miterlimit="10" stroke-width="4"/><line x1="37.601" x2="40.262" y1="57.852" y2="55.191" fill="none" stroke="#add8e6" stroke-linecap="round" stroke-miterlimit="10" stroke-width="4"/><line x1="41.374" x2="38.713" y1="32.477" y2="29.816" fill="none" stroke="#add8e6" stroke-linecap="round" stroke-miterlimit="10" stroke-width="4"/><line x1="64.09" x2="66.751" y1="55.242" y2="57.903" fill="none" stroke="#add8e6" stroke-linecap="round" stroke-miterlimit="10" stroke-width="4"/><line x1="36.504" x2="32.964" y1="43.83" y2="43.83" fill="none" stroke="#add8e6" stroke-linecap="round" stroke-miterlimit="10" stroke-width="4"/><line x1="68.907" x2="72.447" y1="43.83" y2="43.83" fill="none" stroke="#add8e6" stroke-linecap="round" stroke-miterlimit="10" stroke-width="4"/></g><g id="cloud_patchy2"><path fill="#FFF" stroke="#add8e6" stroke-miterlimit="10" stroke-width="4" d="M57.748,65.771 c5.628,0,10.458-4.335,10.458-9.963c0-3.413-1.71-6.238-4.286-8.088c-4.996-3.411-9.782,0.155-9.782,0.155 c0-3.782-3.713-9.781-12.552-9.805c-7.738-0.021-14.049,6.44-14.034,14.178c0.002,0.843,0.014,1.554,0.049,2.191 c0.214,3.91,2.116,7.6,5.302,9.878c1.192,0.853,2.507,1.43,3.812,1.431"/></g><g id="rain_patchy2"><line x1="39.402" x2="39.402" y1="59.709" y2="72.956" fill="none" stroke="#add8e6" stroke-linecap="round" stroke-miterlimit="10" stroke-width="4"/><line x1="47.112" x2="47.112" y1="62.709" y2="75.956" fill="none" stroke="#add8e6" stroke-linecap="round" stroke-miterlimit="10" stroke-width="4"/><line x1="55.113" x2="55.113" y1="59.709" y2="72.956" fill="none" stroke="#add8e6" stroke-linecap="round" stroke-miterlimit="10" stroke-width="4"/></g></svg>