<?xml-stylesheet href="css/styles.css" type="text/css"?><svg xmlns="http://www.w3.org/2000/svg" id="patchySleetNight" width="100" height="100" x="0" y="0" enable-background="new 0 0 100 100" viewBox="0 0 100 100" xml:space="preserve"><path id="moon_sleet" fill="none" stroke="#add8e6" stroke-miterlimit="10" stroke-width="4" d="M51.364,36.907c0.141,5.109,4.401,9.368,9.51,9.51 c5.534,0.153,10.069-4.288,10.069-9.787l-1.373-0.111c-4.387-0.354-7.883-3.814-8.283-8.198l-0.135-1.483 C55.651,26.838,51.211,31.373,51.364,36.907z"/><g id="cloud13"><path fill="#FFF" stroke="#add8e6" stroke-miterlimit="10" stroke-width="4" d="M59.253,61.989 c5.628,0,10.458-4.335,10.458-9.963c0-3.413-1.71-6.238-4.286-8.088c-4.996-3.411-9.782,0.155-9.782,0.155 c0-3.782-3.713-9.781-12.552-9.805c-7.738-0.021-14.049,6.44-14.034,14.178c0.002,0.843,0.014,1.554,0.049,2.191 c0.214,3.91,2.116,7.6,5.302,9.878c1.192,0.853,2.507,1.43,3.812,1.431"/></g><g id="rain25"><line x1="48.51" x2="48.51" y1="59.196" y2="73.162" fill="none" stroke="#add8e6" stroke-linecap="round" stroke-miterlimit="10" stroke-width="4"/><line x1="40.971" x2="40.971" y1="55.273" y2="69.238" fill="none" stroke="#add8e6" stroke-linecap="round" stroke-miterlimit="10" stroke-width="4"/></g><g id="snow25"><line x1="56.715" x2="56.715" y1="56.072" y2="55.743" fill="none" stroke="#add8e6" stroke-linecap="round" stroke-miterlimit="10" stroke-width="4"/><line x1="56.715" x2="56.715" y1="63.073" y2="62.743" fill="none" stroke="#add8e6" stroke-linecap="round" stroke-miterlimit="10" stroke-width="4"/><line x1="56.715" x2="56.715" y1="70.073" y2="69.744" fill="none" stroke="#add8e6" stroke-linecap="round" stroke-miterlimit="10" stroke-width="4"/></g></svg>