<?xml-stylesheet href="css/styles.css" type="text/css"?><svg xmlns="http://www.w3.org/2000/svg" id="patchySnowThunder" width="100" height="100" x="0" y="0" enable-background="new 0 0 100 100" viewBox="0 0 100 100" xml:space="preserve"><g id="cloud_patchy_thunder"><path fill="#FFF" stroke="#add8e6" stroke-miterlimit="10" stroke-width="4" d="M59.869,58.217 c5.628,0,10.458-4.335,10.458-9.963c0-3.413-1.71-6.238-4.286-8.088c-4.996-3.411-9.782,0.155-9.782,0.155 c0-3.782-3.713-9.781-12.552-9.805c-7.738-0.021-14.049,6.44-14.034,14.178c0.002,0.843,0.014,1.554,0.049,2.191 c0.214,3.91,2.116,7.6,5.302,9.878c1.192,0.853,2.507,1.43,3.812,1.431"/></g><polygon id="lightning2" points="46.092 48.511 56.09 48.503 50.091 58.503 57.09 58.503 44.092 74.501 47.692 62.503 41.092 62.503"/><g id="snow_patchy_thunder"><line x1="41.5" x2="41.5" y1="52.484" y2="52.155" fill="none" stroke="#add8e6" stroke-linecap="round" stroke-miterlimit="10" stroke-width="4"/><line x1="41.5" x2="41.5" y1="59.485" y2="59.155" fill="none" stroke="#add8e6" stroke-linecap="round" stroke-miterlimit="10" stroke-width="4"/><line x1="41.5" x2="41.5" y1="66.485" y2="66.156" fill="none" stroke="#add8e6" stroke-linecap="round" stroke-miterlimit="10" stroke-width="4"/><line x1="49.501" x2="49.501" y1="55.485" y2="55.155" fill="none" stroke="#add8e6" stroke-linecap="round" stroke-miterlimit="10" stroke-width="4"/><line x1="49.501" x2="49.501" y1="62.485" y2="62.155" fill="none" stroke="#add8e6" stroke-linecap="round" stroke-miterlimit="10" stroke-width="4"/><line x1="49.501" x2="49.501" y1="69.485" y2="69.156" fill="none" stroke="#add8e6" stroke-linecap="round" stroke-miterlimit="10" stroke-width="4"/><line x1="57.291" x2="57.291" y1="52.643" y2="52.314" fill="none" stroke="#add8e6" stroke-linecap="round" stroke-miterlimit="10" stroke-width="4"/><line x1="57.291" x2="57.291" y1="59.644" y2="59.314" fill="none" stroke="#add8e6" stroke-linecap="round" stroke-miterlimit="10" stroke-width="4"/><line x1="57.291" x2="57.291" y1="66.644" y2="66.315" fill="none" stroke="#add8e6" stroke-linecap="round" stroke-miterlimit="10" stroke-width="4"/></g></svg>