<?xml-stylesheet href="css/styles.css" type="text/css"?><svg xmlns="http://www.w3.org/2000/svg" id="patchySnow" width="100" height="100" x="0" y="0" enable-background="new 0 0 100 100" viewBox="0 0 100 100" xml:space="preserve"><g id="moon3"><path fill="none" stroke="#add8e6" stroke-miterlimit="10" stroke-width="4" d="M51.619,37.24c0.141,5.109,4.401,9.368,9.51,9.51 c5.534,0.153,10.069-4.288,10.069-9.787c0,0-1.373-0.111-1.373-0.111c-4.387-0.354-7.883-3.814-8.283-8.198l-0.135-1.483 C55.906,27.172,51.466,31.706,51.619,37.24z"/></g><g id="snow"><line x1="39.402" x2="39.402" y1="60.038" y2="59.709" fill="none" stroke="#add8e6" stroke-linecap="round" stroke-miterlimit="10" stroke-width="4"/><line x1="39.402" x2="39.402" y1="67.039" y2="66.709" fill="none" stroke="#add8e6" stroke-linecap="round" stroke-miterlimit="10" stroke-width="4"/><line x1="39.402" x2="39.402" y1="74.039" y2="73.709" fill="none" stroke="#add8e6" stroke-linecap="round" stroke-miterlimit="10" stroke-width="4"/><line x1="47.403" x2="47.403" y1="63.038" y2="62.709" fill="none" stroke="#add8e6" stroke-linecap="round" stroke-miterlimit="10" stroke-width="4"/><line x1="47.403" x2="47.403" y1="70.039" y2="69.709" fill="none" stroke="#add8e6" stroke-linecap="round" stroke-miterlimit="10" stroke-width="4"/><line x1="47.403" x2="47.403" y1="77.039" y2="76.71" fill="none" stroke="#add8e6" stroke-linecap="round" stroke-miterlimit="10" stroke-width="4"/><line x1="55.193" x2="55.193" y1="60.197" y2="59.868" fill="none" stroke="#add8e6" stroke-linecap="round" stroke-miterlimit="10" stroke-width="4"/><line x1="55.193" x2="55.193" y1="67.198" y2="66.868" fill="none" stroke="#add8e6" stroke-linecap="round" stroke-miterlimit="10" stroke-width="4"/><line x1="55.193" x2="55.193" y1="74.198" y2="73.869" fill="none" stroke="#add8e6" stroke-linecap="round" stroke-miterlimit="10" stroke-width="4"/></g><g id="cloud3"><path fill="#FFF" stroke="#add8e6" stroke-miterlimit="10" stroke-width="4" d="M58.998,62.643 c5.628,0,10.458-4.335,10.458-9.963c0-3.413-1.71-6.238-4.286-8.088c-4.996-3.411-9.782,0.155-9.782,0.155 c0-3.782-3.713-9.781-12.552-9.805c-7.738-0.021-14.049,6.44-14.034,14.178c0.002,0.843,0.014,1.554,0.049,2.191 c0.214,3.91,2.116,7.6,5.302,9.878c1.192,0.853,2.507,1.43,3.812,1.431"/></g></svg>