<?xml-stylesheet href="css/styles.css" type="text/css"?><svg xmlns="http://www.w3.org/2000/svg" id="patchySleetDay" width="100" height="100" x="0" y="0" enable-background="new 0 0 100 100" viewBox="0 0 100 100" xml:space="preserve"><g><g id="sun33"><circle cx="52.504" cy="42.831" r="9.283" fill="none" stroke="#add8e6" stroke-miterlimit="10" stroke-width="4"/><line x1="52.598" x2="52.598" y1="26.263" y2="22.378" fill="none" stroke="#add8e6" stroke-linecap="round" stroke-miterlimit="10" stroke-width="4"/><line x1="52.598" x2="52.598" y1="59.479" y2="63.364" fill="none" stroke="#add8e6" stroke-linecap="round" stroke-miterlimit="10" stroke-width="4"/><line x1="64.31" x2="67.057" y1="31.021" y2="28.274" fill="none" stroke="#add8e6" stroke-linecap="round" stroke-miterlimit="10" stroke-width="4"/><line x1="40.824" x2="38.077" y1="31.083" y2="28.336" fill="none" stroke="#add8e6" stroke-linecap="round" stroke-miterlimit="10" stroke-width="4"/><line x1="64.272" x2="67.019" y1="54.582" y2="57.329" fill="none" stroke="#add8e6" stroke-linecap="round" stroke-miterlimit="10" stroke-width="4"/><line x1="40.785" x2="38.039" y1="54.52" y2="57.267" fill="none" stroke="#add8e6" stroke-linecap="round" stroke-miterlimit="10" stroke-width="4"/><line x1="35.797" x2="32.143" y1="42.802" y2="42.802" fill="none" stroke="#add8e6" stroke-linecap="round" stroke-miterlimit="10" stroke-width="4"/><line x1="69.244" x2="72.899" y1="42.802" y2="42.802" fill="none" stroke="#add8e6" stroke-linecap="round" stroke-miterlimit="10" stroke-width="4"/></g><g id="cloud33"><path fill="#FFF" stroke="#add8e6" stroke-miterlimit="10" stroke-width="4" d="M57.297,66.106 c5.628,0,10.458-4.335,10.458-9.963c0-3.413-1.71-6.238-4.286-8.088c-4.996-3.411-9.782,0.155-9.782,0.155 c0-3.782-3.713-9.781-12.552-9.805c-7.738-0.021-14.049,6.44-14.034,14.178c0.002,0.843,0.014,1.554,0.049,2.191 c0.214,3.91,2.116,7.6,5.302,9.878c1.192,0.853,2.507,1.43,3.812,1.431"/></g><g id="rain33"><line x1="46.514" x2="46.514" y1="63.656" y2="77.622" fill="none" stroke="#add8e6" stroke-linecap="round" stroke-miterlimit="10" stroke-width="4"/><line x1="38.975" x2="38.975" y1="59.733" y2="73.698" fill="none" stroke="#add8e6" stroke-linecap="round" stroke-miterlimit="10" stroke-width="4"/></g><g id="snow33"><line x1="54.719" x2="54.719" y1="60.532" y2="60.203" fill="none" stroke="#add8e6" stroke-linecap="round" stroke-miterlimit="10" stroke-width="4"/><line x1="54.719" x2="54.719" y1="67.533" y2="67.203" fill="none" stroke="#add8e6" stroke-linecap="round" stroke-miterlimit="10" stroke-width="4"/><line x1="54.719" x2="54.719" y1="74.533" y2="74.204" fill="none" stroke="#add8e6" stroke-linecap="round" stroke-miterlimit="10" stroke-width="4"/></g></g></svg>